<?xml version="1.0" standalone="no"?><!DOCTYPE svg PUBLIC "-//W3C//DTD SVG 1.1//EN" "http://www.w3.org/Graphics/SVG/1.1/DTD/svg11.dtd"><svg t="1758177637316" class="icon" viewBox="0 0 1024 1024" version="1.1" xmlns="http://www.w3.org/2000/svg" p-id="13510" data-darkreader-inline-fill="" xmlns:xlink="http://www.w3.org/1999/xlink" width="200" height="200"><path d="M691.598222 525.880889c81.294222-4.551111 157.070222 39.936 190.862222 112.071111 81.009778 12.231111 140.856889 79.985778 141.084445 159.800889a128.568889 128.568889 0 0 1-38.855111 102.570667 136.248889 136.248889 0 0 1-105.415111 37.831111H518.542222a134.712889 134.712889 0 0 1-103.025778-34.816 127.260444 127.260444 0 0 1-41.301333-98.304c1.080889-76.970667 62.179556-140.458667 141.027556-146.488889 25.031111-75.377778 95.061333-128.056889 176.355555-132.664889z m-351.687111 162.645333a169.301333 169.301333 0 0 0-55.182222 129.422222 166.513778 166.513778 0 0 0 28.444444 97.393778H38.115556a38.684444 38.684444 0 0 1-26.965334-10.865778 36.579556 36.579556 0 0 1-11.150222-26.225777v-152.632889c0-20.48 17.066667-37.091556 38.115556-37.091556zM237.852444 755.484444h-47.616a24.120889 24.120889 0 0 0-16.839111 6.826667 22.869333 22.869333 0 0 0-6.997333 16.327111v46.364445c0 6.144 2.503111 12.060444 6.997333 16.384 4.437333 4.380444 10.524444 6.826667 16.839111 6.826666h47.616a24.120889 24.120889 0 0 0 16.839112-6.826666 22.869333 22.869333 0 0 0 6.997333-16.384v-46.364445a22.869333 22.869333 0 0 0-6.997333-16.384 24.120889 24.120889 0 0 0-16.839112-6.769778z m723.626667-368.64a38.684444 38.684444 0 0 1 26.965333 10.808889 36.579556 36.579556 0 0 1 11.150223 26.282667v152.689778a37.262222 37.262222 0 0 1-35.555556 36.579555c-10.126222-3.413333-20.48-6.257778-30.947555-8.533333-36.295111-93.411556-131.982222-151.893333-234.211556-143.303111-103.025778-6.656-197.347556 56.32-227.953778 152.348444H38.115556a37.603556 37.603556 0 0 1-38.115556-37.091555V423.992889c0-9.841778 3.982222-19.285333 11.150222-26.225778A38.684444 38.684444 0 0 1 38.115556 386.844444zM237.795556 453.973333h-47.616a24.120889 24.120889 0 0 0-16.839112 6.712889 22.869333 22.869333 0 0 0-6.997333 16.440889v46.307556c0 6.144 2.503111 12.060444 6.997333 16.440889 4.437333 4.323556 10.524444 6.769778 16.839112 6.769777h47.616a24.120889 24.120889 0 0 0 16.839111-6.826666 22.869333 22.869333 0 0 0 6.997333-16.384v-46.307556a22.869333 22.869333 0 0 0-6.997333-16.440889 24.120889 24.120889 0 0 0-16.839111-6.769778z m190.520888 0h-47.616a23.495111 23.495111 0 0 0-23.836444 23.153778v46.307556c0 6.144 2.503111 12.060444 6.997333 16.440889 4.437333 4.323556 10.524444 6.769778 16.839111 6.769777h47.616a23.495111 23.495111 0 0 0 23.836445-23.210666v-46.307556a23.495111 23.495111 0 0 0-23.893333-23.210667zM961.422222 85.333333c21.048889 0 38.115556 16.611556 38.115556 37.091556v152.632889c0 9.841778-3.982222 19.342222-11.093334 26.225778a38.684444 38.684444 0 0 1-26.965333 10.865777H38.115556a38.684444 38.684444 0 0 1-26.965334-10.808889A36.579556 36.579556 0 0 1 0 275.000889V122.424889c0-20.48 17.066667-37.091556 38.115556-37.091556H961.422222zM237.909333 152.462222h-47.616a24.120889 24.120889 0 0 0-16.839111 6.712889 22.869333 22.869333 0 0 0-6.997333 16.440889V221.866667c0 6.200889 2.503111 12.060444 6.997333 16.440889 4.437333 4.323556 10.524444 6.769778 16.839111 6.769777h47.616a24.120889 24.120889 0 0 0 16.839111-6.826666 22.869333 22.869333 0 0 0 6.997334-16.384v-46.307556a22.869333 22.869333 0 0 0-6.997334-16.440889 24.120889 24.120889 0 0 0-16.839111-6.769778z m190.520889 0h-47.616a24.120889 24.120889 0 0 0-16.839111 6.712889 22.869333 22.869333 0 0 0-6.997333 16.440889V221.866667c0 6.200889 2.503111 12.060444 6.997333 16.440889 4.437333 4.323556 10.524444 6.769778 16.839111 6.769777h47.616a24.120889 24.120889 0 0 0 16.839111-6.826666 22.869333 22.869333 0 0 0 6.997334-16.384v-46.307556a22.869333 22.869333 0 0 0-6.997334-16.440889 24.120889 24.120889 0 0 0-16.839111-6.769778z" fill="#686E7D" p-id="13511" style="--darkreader-inline-fill: var(--darkreader-background-686e7d, #565d61);" data-darkreader-inline-fill=""></path></svg>