<?xml version="1.0" standalone="no"?><!DOCTYPE svg PUBLIC "-//W3C//DTD SVG 1.1//EN" "http://www.w3.org/Graphics/SVG/1.1/DTD/svg11.dtd"><svg t="1758090204507" class="icon" viewBox="0 0 1024 1024" version="1.1" xmlns="http://www.w3.org/2000/svg" p-id="6812" data-darkreader-inline-fill="" xmlns:xlink="http://www.w3.org/1999/xlink" width="200" height="200"><path d="M938.688 511.872a42.688 42.688 0 1 0-85.376 0h85.376zM512 170.56A42.688 42.688 0 1 0 512 85.12v85.376z m320 682.624H192v85.376h640V853.12z m-661.312-21.312v-640H85.312v640h85.376z m682.624-320v320h85.376v-320h-85.376zM192 170.56h320V85.12H192v85.376zM192 853.12a21.312 21.312 0 0 1-21.312-21.312H85.312c0 58.88 47.744 106.688 106.688 106.688V853.12z m640 85.376c58.88 0 106.688-47.744 106.688-106.688h-85.376c0 11.776-9.536 21.312-21.312 21.312v85.376zM170.688 191.872c0-11.776 9.536-21.312 21.312-21.312V85.12c-58.88 0-106.688 47.808-106.688 106.688h85.376z" fill="#ffffff" p-id="6813" style="--darkreader-inline-fill: var(--darkreader-background-ffffff, #181a1b);" data-darkreader-inline-fill=""></path><path d="M440.512 504.192a85.312 85.312 0 0 0-113.28 1.92L99.2 715.2a42.688 42.688 0 0 0 57.664 62.912l228.16-209.088 269.952 231.36a42.688 42.688 0 0 0 55.488-64.768L440.576 504.192z" fill="#ffffff" p-id="6814" style="--darkreader-inline-fill: var(--darkreader-background-ffffff, #181a1b);" data-darkreader-inline-fill=""></path><path d="M729.344 589.696l-101.824 101.76a42.688 42.688 0 1 1-60.352-60.288l101.824-101.824a85.312 85.312 0 0 1 111.552-7.936L921.6 627.2a42.688 42.688 0 1 1-51.2 68.288l-141.056-105.792zM673.856 119.168c16.64-16.64 43.648-16.64 60.288 0l170.688 170.688a42.688 42.688 0 0 1-60.352 60.288L673.92 179.52a42.688 42.688 0 0 1 0-60.352z" fill="#ffffff" p-id="6815" style="--darkreader-inline-fill: var(--darkreader-background-ffffff, #181a1b);" data-darkreader-inline-fill=""></path><path d="M904.832 119.168c16.64 16.64 16.64 43.648 0 60.352L734.144 350.08a42.688 42.688 0 0 1-60.288-60.288l170.624-170.688c16.64-16.64 43.712-16.64 60.352 0z" fill="#ffffff" p-id="6816" style="--darkreader-inline-fill: var(--darkreader-background-ffffff, #181a1b);" data-darkreader-inline-fill=""></path></svg>